<?xml version="1.0" encoding="UTF-8"?>
<svg id="Layer_2" data-name="Layer 2" xmlns="http://www.w3.org/2000/svg" viewBox="0 0 122.56 226.18">
  <defs>
    <style>
      .cls-1 {
        fill: #561b58;
        stroke-width: 0px;
      }

      .cls-2 {
        fill: #009f96;
        font-family: AlexandriaFLF, AlexandriaFLF;
        font-size: 213.37px;
      }
    </style>
  </defs>
  <g id="All_three" data-name="All three">
    <polygon class="cls-1" points="37.66 58.8 37.66 72.78 13.92 34.8 13.92 34.3 13.61 34.3 13.6 34.29 13.58 34.3 0 34.3 0 140.7 13.92 140.7 13.92 56.82 37.66 94.8 37.66 122.91 47.58 122.91 47.58 58.8 37.66 58.8"/>
    <polygon class="cls-1" points="108.64 34.35 108.64 123.11 84.9 96.99 84.9 76.71 74.97 76.71 74.97 140.82 84.9 140.82 84.9 114.34 108.64 140.46 108.64 140.75 122.56 140.75 122.56 34.35 108.64 34.35"/>
    <text class="cls-2" transform="translate(11.63 182.86)"><tspan x="0" y="0">J</tspan></text>
  </g>
</svg>