<?xml version="1.0" encoding="UTF-8"?>
<svg id="Layer_2" data-name="Layer 2" xmlns="http://www.w3.org/2000/svg" viewBox="0 0 250.1 387.73">
  <defs>
    <style>
      .cls-1 {
        fill: #fff;
        stroke-width: 0px;
      }
    </style>
  </defs>
  <g id="All_three" data-name="All three">
    <path class="cls-1" d="m168.32,9.67h-30.46v296.42c0,29.59-5.25,50.59-15.76,63.01-10.5,12.41-25.91,18.62-46.22,18.62-12.26,0-22.32-1.96-30.2-5.87-7.88-3.91-14.44-8.76-19.7-14.54l17.33-17.86c3.15,3.74,7.35,6.97,12.61,9.69,5.25,2.72,11.9,4.08,19.96,4.08,12.61,0,21.88-3.91,27.84-11.73,5.95-7.82,8.93-22.96,8.93-45.41V9.67h-35.19V0h90.86v9.67Z"/>
    <polygon class="cls-1" points="90.05 58.6 90.05 92.04 33.28 1.21 33.28 .03 32.54 .03 32.52 0 32.47 .03 0 .03 0 254.43 33.28 254.43 33.28 53.87 90.05 144.69 90.05 211.89 100.7 211.89 100.7 58.6 90.05 58.6"/>
    <polygon class="cls-1" points="216.82 .11 216.82 212.33 160.05 149.89 160.05 101.39 150.15 101.39 150.15 254.68 160.05 254.68 160.05 191.38 216.82 253.82 216.82 254.51 250.1 254.51 250.1 .11 216.82 .11"/>
  </g>
</svg>